<svg width="50" height="50" viewBox="0 0 50 50" fill="none" xmlns="http://www.w3.org/2000/svg">
<path d="M39.5833 6.25H10.4167C8.11458 6.25 6.25 8.11458 6.25 10.4167V39.5833C6.25 41.8854 8.11458 43.75 10.4167 43.75H26.2938V29.2479H21.4125V23.5708H26.2938V19.3937C26.2938 14.5521 29.2542 11.9125 33.575 11.9125C35.0312 11.9083 36.4854 11.9833 37.9333 12.1312V17.1938H34.9583C32.6042 17.1938 32.1458 18.3062 32.1458 19.9479V23.5625H37.7708L37.0396 29.2396H32.1125V43.75H39.5833C41.8854 43.75 43.75 41.8854 43.75 39.5833V10.4167C43.75 8.11458 41.8854 6.25 39.5833 6.25Z" fill="#F5F7F8"/>
</svg>
