<svg width="50" height="50" viewBox="0 0 50 50" fill="none" xmlns="http://www.w3.org/2000/svg">
<path d="M25.009 1.98193C12.322 1.98193 2 12.3039 2 24.9909C2 37.6779 12.322 47.9999 25.009 47.9999C37.696 47.9999 48.018 37.6789 48.018 24.9909C48.018 12.3029 37.696 1.98193 25.009 1.98193ZM34.748 35.3329C34.459 35.7669 33.983 36.0009 33.498 36.0009C33.212 36.0009 32.923 35.9199 32.667 35.7489C30.194 34.0999 26 32.9999 22.5 33.0009C18.786 33.0029 16.002 33.9149 15.974 33.9239C15.19 34.1899 14.339 33.7619 14.077 32.9759C13.815 32.1899 14.24 31.3399 15.026 31.0789C15.158 31.0349 18.305 30.0039 22.5 30.0019C26 29.9999 30.868 30.9439 34.332 33.2529C35.022 33.7129 35.208 34.6439 34.748 35.3329ZM37.74 29.1929C37.415 29.7149 36.854 30.0019 36.281 30.0019C35.971 30.0019 35.657 29.9189 35.375 29.7419C30.891 26.9479 26.283 26.3569 22.313 26.3919C17.831 26.4319 14.247 27.2869 14.186 27.3049C13.279 27.5629 12.325 27.0329 12.066 26.1219C11.807 25.2089 12.338 24.2599 13.25 24.0019C13.527 23.9229 17.104 23.0429 22.001 23.0019C26.466 22.9649 32.03 23.6119 37.192 26.8279C37.995 27.3279 38.242 28.3879 37.74 29.1929ZM40.725 22.0129C40.352 22.6469 39.684 22.9999 38.998 22.9999C38.654 22.9999 38.306 22.9109 37.987 22.7249C32.761 19.6569 26.407 19.0059 21.997 18.9999C21.976 18.9999 21.955 18.9999 21.934 18.9999C16.601 18.9999 12.494 19.9379 12.453 19.9479C11.375 20.1949 10.302 19.5289 10.052 18.4529C9.802 17.3779 10.469 16.3039 11.544 16.0529C11.729 16.0099 16.117 14.9999 21.934 14.9999C21.957 14.9999 21.98 14.9999 22.003 14.9999C26.908 15.0069 34.014 15.7529 40.013 19.2749C40.965 19.8349 41.284 21.0609 40.725 22.0129Z" fill="#3D5A7E"/>
</svg>
